# xmcd CD database file
#
# Track frame offsets:
#	150
#	15158
#	37358
#	59135
#	93673
#	128160
#	150972
#	172483
#	197124
#	225712
#
# Disc length: 3232 seconds
#
# Revision: 0
# Processed by: cddbd v1.4PL0 Copyright (c) Steve Scherf et al.
# Submitted via: CDex 1.50
#
DISCID=8a0c9e0a
DTITLE=Joëlle Léandre, Hasse Poulsen, François Houle - C'est ça
DYEAR=2000
DGENRE=Jazz
TTITLE0=C'est ça
TTITLE1=C'est ça
TTITLE2=C'est ça
TTITLE3=C'est ça
TTITLE4=C'est ça
TTITLE5=C'est ça
TTITLE6=C'est ça
TTITLE7=C'est ça
TTITLE8=C'est ça
TTITLE9=C'est ça
EXTD=YEAR: 2000
EXTT0=
EXTT1=
EXTT2=
EXTT3=
EXTT4=
EXTT5=
EXTT6=
EXTT7=
EXTT8=
EXTT9=
PLAYORDER=
